<?xml version="1.0" standalone="no"?>
<!DOCTYPE svg PUBLIC "-//W3C//DTD SVG 20010904//EN"
 "http://www.w3.org/TR/2001/REC-SVG-20010904/DTD/svg10.dtd">
<svg version="1.0" xmlns="http://www.w3.org/2000/svg"
 width="455.000000pt" height="455.000000pt" viewBox="0 0 455.000000 455.000000"
 preserveAspectRatio="xMidYMid meet">
<metadata>
Created by potrace 1.11, written by Peter Selinger 2001-2013
</metadata>
<g transform="translate(0.000000,455.000000) scale(0.100000,-0.100000)"
fill="#000000" stroke="none">
<path d="M1568 3704 c-2 -1 -69 -4 -148 -5 -80 0 -170 -5 -200 -9 -30 -5 -77
-11 -105 -14 -124 -14 -376 -66 -466 -96 -103 -34 -263 -114 -306 -153 -21
-20 -48 -53 -59 -74 -38 -75 -74 -122 -96 -125 -25 -3 -26 -14 -14 -88 14 -83
15 -94 21 -235 14 -361 35 -542 85 -750 79 -320 255 -632 489 -865 227 -226
429 -342 746 -430 82 -23 116 -40 78 -40 -30 0 -53 -10 -53 -24 0 -8 37 -11
122 -11 121 0 217 -16 383 -61 97 -26 129 -34 148 -34 36 0 5 19 -61 39 -37
11 -89 26 -117 34 l-50 15 40 2 c22 1 47 3 55 4 8 2 42 7 75 11 185 22 541
109 635 154 193 93 380 261 555 494 l88 118 18 -40 c9 -22 29 -47 43 -56 72
-47 302 -3 412 78 59 44 156 158 220 258 117 186 243 499 262 650 23 183 -9
511 -59 611 -24 48 -93 116 -125 124 -50 13 -135 -10 -191 -52 -22 -16 -22
-15 -34 32 -10 39 -28 64 -93 132 -131 137 -233 201 -416 260 -186 62 -312 85
-580 107 -36 3 -78 8 -95 11 -16 3 -142 7 -280 8 -374 5 -888 17 -907 20 -9 2
-18 2 -20 0z m2538 -811 c33 -34 46 -85 49 -198 4 -181 -14 -260 -105 -439
-99 -195 -230 -377 -298 -410 -18 -9 -57 -16 -87 -16 -49 0 -55 2 -61 24 -4
15 4 43 24 82 95 190 228 574 308 894 16 61 130 103 170 63z"/>
</g>
</svg>
